<mxfile host="app.diagrams.net" modified="2023-04-30T02:21:36.038Z" agent="Mozilla/5.0 (Windows NT 10.0; Win64; x64; rv:109.0) Gecko/20100101 Firefox/112.0" etag="gDccs6qqykU8Y8VSgGbs" version="21.2.3" type="device">
  <diagram name="PÃ¡gina-1" id="g9y7OFc0SlW-h0Sp7nwA">
    <mxGraphModel dx="1304" dy="704" grid="1" gridSize="10" guides="1" tooltips="1" connect="1" arrows="1" fold="1" page="1" pageScale="1" pageWidth="827" pageHeight="1169" math="0" shadow="0">
      <root>
        <mxCell id="0" />
        <mxCell id="1" parent="0" />
        <mxCell id="OiDhf2oz0HeLRmlVTqJ--1" value="" style="swimlane;startSize=0;align=center;" vertex="1" parent="1">
          <mxGeometry x="240" y="200" width="440" height="440" as="geometry">
            <mxRectangle x="240" y="200" width="50" height="40" as="alternateBounds" />
          </mxGeometry>
        </mxCell>
        <mxCell id="OiDhf2oz0HeLRmlVTqJ--45" value="" style="whiteSpace=wrap;html=1;aspect=fixed;fillColor=#dae8fc;strokeColor=#6c8ebf;" vertex="1" parent="OiDhf2oz0HeLRmlVTqJ--1">
          <mxGeometry x="290" y="170" width="100" height="100" as="geometry" />
        </mxCell>
        <mxCell id="OiDhf2oz0HeLRmlVTqJ--22" value="" style="rounded=0;whiteSpace=wrap;html=1;fillColor=#d5e8d4;strokeColor=#82b366;" vertex="1" parent="OiDhf2oz0HeLRmlVTqJ--1">
          <mxGeometry x="10" y="10" width="420" height="130" as="geometry" />
        </mxCell>
        <mxCell id="OiDhf2oz0HeLRmlVTqJ--5" value="" style="endArrow=classic;html=1;rounded=0;exitX=1;exitY=0.5;exitDx=0;exitDy=0;entryX=0;entryY=0.5;entryDx=0;entryDy=0;" edge="1" parent="OiDhf2oz0HeLRmlVTqJ--1" source="OiDhf2oz0HeLRmlVTqJ--31" target="OiDhf2oz0HeLRmlVTqJ--47">
          <mxGeometry width="50" height="50" relative="1" as="geometry">
            <mxPoint x="160" y="61.5" as="sourcePoint" />
            <mxPoint x="255" y="62.5" as="targetPoint" />
          </mxGeometry>
        </mxCell>
        <mxCell id="OiDhf2oz0HeLRmlVTqJ--10" value="" style="whiteSpace=wrap;html=1;aspect=fixed;fillColor=#dae8fc;strokeColor=#6c8ebf;" vertex="1" parent="OiDhf2oz0HeLRmlVTqJ--1">
          <mxGeometry x="38" y="170" width="100" height="100" as="geometry" />
        </mxCell>
        <mxCell id="OiDhf2oz0HeLRmlVTqJ--17" value="" style="rounded=1;whiteSpace=wrap;html=1;fillColor=#fff2cc;strokeColor=#d6b656;" vertex="1" parent="OiDhf2oz0HeLRmlVTqJ--1">
          <mxGeometry x="22.48" y="320" width="387.52" height="90" as="geometry" />
        </mxCell>
        <mxCell id="OiDhf2oz0HeLRmlVTqJ--18" value="Monitorizacion" style="text;strokeColor=none;align=center;fillColor=none;html=1;verticalAlign=middle;whiteSpace=wrap;rounded=0;fontSize=16;" vertex="1" parent="OiDhf2oz0HeLRmlVTqJ--1">
          <mxGeometry x="48.6" y="330" width="80" height="20" as="geometry" />
        </mxCell>
        <mxCell id="OiDhf2oz0HeLRmlVTqJ--20" value="Scripts en cron para monitorizar CPU,RAM,DISK" style="text;strokeColor=none;align=left;fillColor=none;html=1;verticalAlign=middle;whiteSpace=wrap;rounded=0;fontSize=14;" vertex="1" parent="OiDhf2oz0HeLRmlVTqJ--1">
          <mxGeometry x="33.48" y="350" width="356.52" height="20" as="geometry" />
        </mxCell>
        <mxCell id="OiDhf2oz0HeLRmlVTqJ--27" value="Docker" style="text;strokeColor=none;align=center;fillColor=none;html=1;verticalAlign=middle;whiteSpace=wrap;rounded=0;fontSize=14;" vertex="1" parent="OiDhf2oz0HeLRmlVTqJ--1">
          <mxGeometry x="320" y="212.39999999999998" width="40" height="20" as="geometry" />
        </mxCell>
        <mxCell id="OiDhf2oz0HeLRmlVTqJ--29" value="Nginx" style="text;strokeColor=none;align=center;fillColor=none;html=1;verticalAlign=middle;whiteSpace=wrap;rounded=0;fontSize=14;" vertex="1" parent="OiDhf2oz0HeLRmlVTqJ--1">
          <mxGeometry x="320" y="236.39999999999998" width="40" height="20" as="geometry" />
        </mxCell>
        <mxCell id="OiDhf2oz0HeLRmlVTqJ--31" value="" style="image;aspect=fixed;perimeter=ellipsePerimeter;html=1;align=center;shadow=0;dashed=0;spacingTop=3;image=img/lib/active_directory/generic_server.svg;fontSize=13;" vertex="1" parent="OiDhf2oz0HeLRmlVTqJ--1">
          <mxGeometry x="71.6" y="43" width="36.4" height="65" as="geometry" />
        </mxCell>
        <mxCell id="OiDhf2oz0HeLRmlVTqJ--34" value="Ansible" style="text;strokeColor=none;align=center;fillColor=none;html=1;verticalAlign=middle;whiteSpace=wrap;rounded=0;fontSize=15;" vertex="1" parent="OiDhf2oz0HeLRmlVTqJ--1">
          <mxGeometry x="320" y="191" width="40" height="20" as="geometry" />
        </mxCell>
        <mxCell id="OiDhf2oz0HeLRmlVTqJ--36" value="Alertas mediante scripts de Python y&amp;nbsp; notificaciones en telegram" style="text;strokeColor=none;align=left;fillColor=none;html=1;verticalAlign=middle;whiteSpace=wrap;rounded=0;fontSize=14;" vertex="1" parent="OiDhf2oz0HeLRmlVTqJ--1">
          <mxGeometry x="34.48" y="375" width="355.52" height="20" as="geometry" />
        </mxCell>
        <mxCell id="OiDhf2oz0HeLRmlVTqJ--26" value="Slave" style="text;strokeColor=none;align=center;fillColor=none;html=1;verticalAlign=middle;whiteSpace=wrap;rounded=0;fontSize=16;" vertex="1" parent="OiDhf2oz0HeLRmlVTqJ--1">
          <mxGeometry x="320" y="170" width="40" height="20" as="geometry" />
        </mxCell>
        <mxCell id="OiDhf2oz0HeLRmlVTqJ--25" value="Master" style="text;strokeColor=none;align=center;fillColor=none;html=1;verticalAlign=middle;whiteSpace=wrap;rounded=0;fontSize=15;" vertex="1" parent="OiDhf2oz0HeLRmlVTqJ--1">
          <mxGeometry x="68.00000000000001" y="180" width="40" height="20" as="geometry" />
        </mxCell>
        <mxCell id="OiDhf2oz0HeLRmlVTqJ--38" value="Ansible" style="text;strokeColor=none;align=center;fillColor=none;html=1;verticalAlign=middle;whiteSpace=wrap;rounded=0;fontSize=15;" vertex="1" parent="OiDhf2oz0HeLRmlVTqJ--1">
          <mxGeometry x="69.00000000000001" y="208.4" width="40" height="20" as="geometry" />
        </mxCell>
        <mxCell id="OiDhf2oz0HeLRmlVTqJ--47" value="" style="image;aspect=fixed;perimeter=ellipsePerimeter;html=1;align=center;shadow=0;dashed=0;spacingTop=3;image=img/lib/active_directory/generic_server.svg;fontSize=13;" vertex="1" parent="OiDhf2oz0HeLRmlVTqJ--1">
          <mxGeometry x="330" y="43.5" width="36.4" height="65" as="geometry" />
        </mxCell>
        <mxCell id="OiDhf2oz0HeLRmlVTqJ--39" value="Ubuntu Server 22.04" style="text;strokeColor=none;align=center;fillColor=none;html=1;verticalAlign=middle;whiteSpace=wrap;rounded=0;fontSize=14;" vertex="1" parent="OiDhf2oz0HeLRmlVTqJ--1">
          <mxGeometry x="310" y="110" width="93.04" height="20" as="geometry" />
        </mxCell>
        <mxCell id="OiDhf2oz0HeLRmlVTqJ--9" value="Slave" style="text;strokeColor=none;align=center;fillColor=none;html=1;verticalAlign=middle;whiteSpace=wrap;rounded=0;fontSize=16;" vertex="1" parent="OiDhf2oz0HeLRmlVTqJ--1">
          <mxGeometry x="330" y="18" width="40" height="20" as="geometry" />
        </mxCell>
        <mxCell id="OiDhf2oz0HeLRmlVTqJ--48" value="Ubuntu Server 22.04" style="text;strokeColor=none;align=center;fillColor=none;html=1;verticalAlign=middle;whiteSpace=wrap;rounded=0;fontSize=14;" vertex="1" parent="OiDhf2oz0HeLRmlVTqJ--1">
          <mxGeometry x="43.99999999999998" y="112" width="93.04" height="20" as="geometry" />
        </mxCell>
        <mxCell id="OiDhf2oz0HeLRmlVTqJ--6" value="Master" style="text;strokeColor=none;align=center;fillColor=none;html=1;verticalAlign=middle;whiteSpace=wrap;rounded=0;fontSize=16;" vertex="1" parent="1">
          <mxGeometry x="311.6" y="221.5" width="40" height="20" as="geometry" />
        </mxCell>
        <mxCell id="OiDhf2oz0HeLRmlVTqJ--23" value="Red NAT Interna" style="text;strokeColor=none;align=center;fillColor=none;html=1;verticalAlign=middle;whiteSpace=wrap;rounded=0;fontSize=16;fontStyle=0" vertex="1" parent="1">
          <mxGeometry x="389" y="218" width="136" height="10" as="geometry" />
        </mxCell>
      </root>
    </mxGraphModel>
  </diagram>
</mxfile>
